<?xml version="1.0" encoding="utf-8" standalone="no"?>
<!DOCTYPE svg PUBLIC "-//W3C//DTD SVG 1.1//EN"
  "http://www.w3.org/Graphics/SVG/1.1/DTD/svg11.dtd">
<svg xmlns:xlink="http://www.w3.org/1999/xlink" width="817.24925pt" height="403.2pt" viewBox="0 0 817.24925 403.2" xmlns="http://www.w3.org/2000/svg" version="1.1">
 <metadata>
  <rdf:RDF xmlns:dc="http://purl.org/dc/elements/1.1/" xmlns:cc="http://creativecommons.org/ns#" xmlns:rdf="http://www.w3.org/1999/02/22-rdf-syntax-ns#">
   <cc:Work>
    <dc:type rdf:resource="http://purl.org/dc/dcmitype/StillImage"/>
    <dc:date>2024-06-06T12:02:05.509624</dc:date>
    <dc:format>image/svg+xml</dc:format>
    <dc:creator>
     <cc:Agent>
      <dc:title>Matplotlib v3.8.4, https://matplotlib.org/</dc:title>
     </cc:Agent>
    </dc:creator>
   </cc:Work>
  </rdf:RDF>
 </metadata>
 <defs>
  <style type="text/css">*{stroke-linejoin: round; stroke-linecap: butt}</style>
 </defs>
 <g id="figure_1">
  <g id="patch_1">
   <path d="M 0 403.2 
L 817.24925 403.2 
L 817.24925 0 
L 0 0 
z
" style="fill: #ffffff"/>
  </g>
  <g id="axes_1">
   <g id="line2d_1">
    <path d="M 41.620875 7.2 
L 779.440875 396 
" clip-path="url(#pbb274a2ec6)" style="fill: none; stroke: #ffffff; stroke-width: 1.5; stroke-linecap: round"/>
   </g>
   <g id="line2d_2">
    <path d="M 164.590875 151.611429 
L 656.470875 151.611429 
" clip-path="url(#pbb274a2ec6)" style="fill: none; stroke: #1a1a1a; stroke-width: 0.7; stroke-linecap: round"/>
   </g>
   <g id="line2d_3">
    <path d="M 656.470875 140.502857 
L 656.470875 151.611429 
" clip-path="url(#pbb274a2ec6)" style="fill: none; stroke: #1a1a1a; stroke-width: 0.7; stroke-linecap: round"/>
   </g>
   <g id="line2d_4">
    <path d="M 594.985875 146.057143 
L 594.985875 151.611429 
" clip-path="url(#pbb274a2ec6)" style="fill: none; stroke: #1a1a1a; stroke-width: 0.7; stroke-linecap: round"/>
   </g>
   <g id="line2d_5">
    <path d="M 533.500875 140.502857 
L 533.500875 151.611429 
" clip-path="url(#pbb274a2ec6)" style="fill: none; stroke: #1a1a1a; stroke-width: 0.7; stroke-linecap: round"/>
   </g>
   <g id="line2d_6">
    <path d="M 472.015875 146.057143 
L 472.015875 151.611429 
" clip-path="url(#pbb274a2ec6)" style="fill: none; stroke: #1a1a1a; stroke-width: 0.7; stroke-linecap: round"/>
   </g>
   <g id="line2d_7">
    <path d="M 410.530875 140.502857 
L 410.530875 151.611429 
" clip-path="url(#pbb274a2ec6)" style="fill: none; stroke: #1a1a1a; stroke-width: 0.7; stroke-linecap: round"/>
   </g>
   <g id="line2d_8">
    <path d="M 349.045875 146.057143 
L 349.045875 151.611429 
" clip-path="url(#pbb274a2ec6)" style="fill: none; stroke: #1a1a1a; stroke-width: 0.7; stroke-linecap: round"/>
   </g>
   <g id="line2d_9">
    <path d="M 287.560875 140.502857 
L 287.560875 151.611429 
" clip-path="url(#pbb274a2ec6)" style="fill: none; stroke: #1a1a1a; stroke-width: 0.7; stroke-linecap: round"/>
   </g>
   <g id="line2d_10">
    <path d="M 226.075875 146.057143 
L 226.075875 151.611429 
" clip-path="url(#pbb274a2ec6)" style="fill: none; stroke: #1a1a1a; stroke-width: 0.7; stroke-linecap: round"/>
   </g>
   <g id="line2d_11">
    <path d="M 164.590875 140.502857 
L 164.590875 151.611429 
" clip-path="url(#pbb274a2ec6)" style="fill: none; stroke: #1a1a1a; stroke-width: 0.7; stroke-linecap: round"/>
   </g>
   <g id="line2d_12">
    <path d="M 361.639188 151.611429 
L 361.639188 262.697143 
L 152.293875 262.697143 
" clip-path="url(#pbb274a2ec6)" style="fill: none; stroke: #1a1a1a; stroke-width: 0.7; stroke-linecap: round"/>
   </g>
   <g id="line2d_13">
    <path d="M 396.455995 151.611429 
L 396.455995 307.131429 
L 152.293875 307.131429 
" clip-path="url(#pbb274a2ec6)" style="fill: none; stroke: #1a1a1a; stroke-width: 0.7; stroke-linecap: round"/>
   </g>
   <g id="line2d_14">
    <path d="M 412.753224 151.611429 
L 412.753224 351.565714 
L 152.293875 351.565714 
" clip-path="url(#pbb274a2ec6)" style="fill: none; stroke: #1a1a1a; stroke-width: 0.7; stroke-linecap: round"/>
   </g>
   <g id="line2d_15">
    <path d="M 437.199068 151.611429 
L 437.199068 307.131429 
L 668.767875 307.131429 
" clip-path="url(#pbb274a2ec6)" style="fill: none; stroke: #1a1a1a; stroke-width: 0.7; stroke-linecap: round"/>
   </g>
   <g id="line2d_16">
    <path d="M 444.606899 151.611429 
L 444.606899 262.697143 
L 668.767875 262.697143 
" clip-path="url(#pbb274a2ec6)" style="fill: none; stroke: #1a1a1a; stroke-width: 0.7; stroke-linecap: round"/>
   </g>
   <g id="line2d_17">
    <path d="M 164.590875 62.742857 
L 246.919305 62.742857 
" clip-path="url(#pbb274a2ec6)" style="fill: none; stroke: #1a1a1a; stroke-width: 0.7; stroke-linecap: round"/>
   </g>
   <g id="line2d_18">
    <path d="M 164.590875 73.851429 
L 164.590875 51.634286 
" clip-path="url(#pbb274a2ec6)" style="fill: none; stroke: #1a1a1a; stroke-width: 0.7; stroke-linecap: round"/>
   </g>
   <g id="line2d_19">
    <path d="M 246.919305 73.851429 
L 246.919305 51.634286 
" clip-path="url(#pbb274a2ec6)" style="fill: none; stroke: #1a1a1a; stroke-width: 0.7; stroke-linecap: round"/>
   </g>
   <g id="line2d_20">
    <path d="M 355.490688 196.045714 
L 443.347568 196.045714 
" clip-path="url(#pbb274a2ec6)" style="fill: none; stroke: #1a1a1a; stroke-width: 2.5; stroke-linecap: round"/>
   </g>
   <g id="line2d_21">
    <path d="M 390.307495 218.262857 
L 450.755399 218.262857 
" clip-path="url(#pbb274a2ec6)" style="fill: none; stroke: #1a1a1a; stroke-width: 2.5; stroke-linecap: round"/>
   </g>
   <g id="text_1">
    <!-- 1 -->
    <g style="fill: #262626" transform="translate(650.108375 125.234911) scale(0.2 -0.2)">
     <defs>
      <path id="DejaVuSans-31" d="M 794 531 
L 1825 531 
L 1825 4091 
L 703 3866 
L 703 4441 
L 1819 4666 
L 2450 4666 
L 2450 531 
L 3481 531 
L 3481 0 
L 794 0 
L 794 531 
z
" transform="scale(0.015625)"/>
     </defs>
     <use xlink:href="#DejaVuSans-31"/>
    </g>
   </g>
   <g id="text_2">
    <!-- 2 -->
    <g style="fill: #262626" transform="translate(527.138375 125.234911) scale(0.2 -0.2)">
     <defs>
      <path id="DejaVuSans-32" d="M 1228 531 
L 3431 531 
L 3431 0 
L 469 0 
L 469 531 
Q 828 903 1448 1529 
Q 2069 2156 2228 2338 
Q 2531 2678 2651 2914 
Q 2772 3150 2772 3378 
Q 2772 3750 2511 3984 
Q 2250 4219 1831 4219 
Q 1534 4219 1204 4116 
Q 875 4013 500 3803 
L 500 4441 
Q 881 4594 1212 4672 
Q 1544 4750 1819 4750 
Q 2544 4750 2975 4387 
Q 3406 4025 3406 3419 
Q 3406 3131 3298 2873 
Q 3191 2616 2906 2266 
Q 2828 2175 2409 1742 
Q 1991 1309 1228 531 
z
" transform="scale(0.015625)"/>
     </defs>
     <use xlink:href="#DejaVuSans-32"/>
    </g>
   </g>
   <g id="text_3">
    <!-- 3 -->
    <g style="fill: #262626" transform="translate(404.168375 125.234911) scale(0.2 -0.2)">
     <defs>
      <path id="DejaVuSans-33" d="M 2597 2516 
Q 3050 2419 3304 2112 
Q 3559 1806 3559 1356 
Q 3559 666 3084 287 
Q 2609 -91 1734 -91 
Q 1441 -91 1130 -33 
Q 819 25 488 141 
L 488 750 
Q 750 597 1062 519 
Q 1375 441 1716 441 
Q 2309 441 2620 675 
Q 2931 909 2931 1356 
Q 2931 1769 2642 2001 
Q 2353 2234 1838 2234 
L 1294 2234 
L 1294 2753 
L 1863 2753 
Q 2328 2753 2575 2939 
Q 2822 3125 2822 3475 
Q 2822 3834 2567 4026 
Q 2313 4219 1838 4219 
Q 1578 4219 1281 4162 
Q 984 4106 628 3988 
L 628 4550 
Q 988 4650 1302 4700 
Q 1616 4750 1894 4750 
Q 2613 4750 3031 4423 
Q 3450 4097 3450 3541 
Q 3450 3153 3228 2886 
Q 3006 2619 2597 2516 
z
" transform="scale(0.015625)"/>
     </defs>
     <use xlink:href="#DejaVuSans-33"/>
    </g>
   </g>
   <g id="text_4">
    <!-- 4 -->
    <g style="fill: #262626" transform="translate(281.198375 125.234911) scale(0.2 -0.2)">
     <defs>
      <path id="DejaVuSans-34" d="M 2419 4116 
L 825 1625 
L 2419 1625 
L 2419 4116 
z
M 2253 4666 
L 3047 4666 
L 3047 1625 
L 3713 1625 
L 3713 1100 
L 3047 1100 
L 3047 0 
L 2419 0 
L 2419 1100 
L 313 1100 
L 313 1709 
L 2253 4666 
z
" transform="scale(0.015625)"/>
     </defs>
     <use xlink:href="#DejaVuSans-34"/>
    </g>
   </g>
   <g id="text_5">
    <!-- 5 -->
    <g style="fill: #262626" transform="translate(158.228375 125.234911) scale(0.2 -0.2)">
     <defs>
      <path id="DejaVuSans-35" d="M 691 4666 
L 3169 4666 
L 3169 4134 
L 1269 4134 
L 1269 2991 
Q 1406 3038 1543 3061 
Q 1681 3084 1819 3084 
Q 2600 3084 3056 2656 
Q 3513 2228 3513 1497 
Q 3513 744 3044 326 
Q 2575 -91 1722 -91 
Q 1428 -91 1123 -41 
Q 819 9 494 109 
L 494 744 
Q 775 591 1075 516 
Q 1375 441 1709 441 
Q 2250 441 2565 725 
Q 2881 1009 2881 1497 
Q 2881 1984 2565 2268 
Q 2250 2553 1709 2553 
Q 1456 2553 1204 2497 
Q 953 2441 691 2322 
L 691 4666 
z
" transform="scale(0.015625)"/>
     </defs>
     <use xlink:href="#DejaVuSans-35"/>
    </g>
   </g>
   <g id="text_6">
    <!-- GES -->
    <g style="fill: #262626" transform="translate(99.165625 268.215893) scale(0.2 -0.2)">
     <defs>
      <path id="DejaVuSans-47" d="M 3809 666 
L 3809 1919 
L 2778 1919 
L 2778 2438 
L 4434 2438 
L 4434 434 
Q 4069 175 3628 42 
Q 3188 -91 2688 -91 
Q 1594 -91 976 548 
Q 359 1188 359 2328 
Q 359 3472 976 4111 
Q 1594 4750 2688 4750 
Q 3144 4750 3555 4637 
Q 3966 4525 4313 4306 
L 4313 3634 
Q 3963 3931 3569 4081 
Q 3175 4231 2741 4231 
Q 1884 4231 1454 3753 
Q 1025 3275 1025 2328 
Q 1025 1384 1454 906 
Q 1884 428 2741 428 
Q 3075 428 3337 486 
Q 3600 544 3809 666 
z
" transform="scale(0.015625)"/>
      <path id="DejaVuSans-45" d="M 628 4666 
L 3578 4666 
L 3578 4134 
L 1259 4134 
L 1259 2753 
L 3481 2753 
L 3481 2222 
L 1259 2222 
L 1259 531 
L 3634 531 
L 3634 0 
L 628 0 
L 628 4666 
z
" transform="scale(0.015625)"/>
      <path id="DejaVuSans-53" d="M 3425 4513 
L 3425 3897 
Q 3066 4069 2747 4153 
Q 2428 4238 2131 4238 
Q 1616 4238 1336 4038 
Q 1056 3838 1056 3469 
Q 1056 3159 1242 3001 
Q 1428 2844 1947 2747 
L 2328 2669 
Q 3034 2534 3370 2195 
Q 3706 1856 3706 1288 
Q 3706 609 3251 259 
Q 2797 -91 1919 -91 
Q 1588 -91 1214 -16 
Q 841 59 441 206 
L 441 856 
Q 825 641 1194 531 
Q 1563 422 1919 422 
Q 2459 422 2753 634 
Q 3047 847 3047 1241 
Q 3047 1584 2836 1778 
Q 2625 1972 2144 2069 
L 1759 2144 
Q 1053 2284 737 2584 
Q 422 2884 422 3419 
Q 422 4038 858 4394 
Q 1294 4750 2059 4750 
Q 2388 4750 2728 4690 
Q 3069 4631 3425 4513 
z
" transform="scale(0.015625)"/>
     </defs>
     <use xlink:href="#DejaVuSans-47"/>
     <use xlink:href="#DejaVuSans-45" x="77.490234"/>
     <use xlink:href="#DejaVuSans-53" x="140.673828"/>
    </g>
   </g>
   <g id="text_7">
    <!-- QDO-ES -->
    <g style="fill: #262626" transform="translate(60.009375 312.650179) scale(0.2 -0.2)">
     <defs>
      <path id="DejaVuSans-51" d="M 2522 4238 
Q 1834 4238 1429 3725 
Q 1025 3213 1025 2328 
Q 1025 1447 1429 934 
Q 1834 422 2522 422 
Q 3209 422 3611 934 
Q 4013 1447 4013 2328 
Q 4013 3213 3611 3725 
Q 3209 4238 2522 4238 
z
M 3406 84 
L 4238 -825 
L 3475 -825 
L 2784 -78 
Q 2681 -84 2626 -87 
Q 2572 -91 2522 -91 
Q 1538 -91 948 567 
Q 359 1225 359 2328 
Q 359 3434 948 4092 
Q 1538 4750 2522 4750 
Q 3503 4750 4090 4092 
Q 4678 3434 4678 2328 
Q 4678 1516 4351 937 
Q 4025 359 3406 84 
z
" transform="scale(0.015625)"/>
      <path id="DejaVuSans-44" d="M 1259 4147 
L 1259 519 
L 2022 519 
Q 2988 519 3436 956 
Q 3884 1394 3884 2338 
Q 3884 3275 3436 3711 
Q 2988 4147 2022 4147 
L 1259 4147 
z
M 628 4666 
L 1925 4666 
Q 3281 4666 3915 4102 
Q 4550 3538 4550 2338 
Q 4550 1131 3912 565 
Q 3275 0 1925 0 
L 628 0 
L 628 4666 
z
" transform="scale(0.015625)"/>
      <path id="DejaVuSans-4f" d="M 2522 4238 
Q 1834 4238 1429 3725 
Q 1025 3213 1025 2328 
Q 1025 1447 1429 934 
Q 1834 422 2522 422 
Q 3209 422 3611 934 
Q 4013 1447 4013 2328 
Q 4013 3213 3611 3725 
Q 3209 4238 2522 4238 
z
M 2522 4750 
Q 3503 4750 4090 4092 
Q 4678 3434 4678 2328 
Q 4678 1225 4090 567 
Q 3503 -91 2522 -91 
Q 1538 -91 948 565 
Q 359 1222 359 2328 
Q 359 3434 948 4092 
Q 1538 4750 2522 4750 
z
" transform="scale(0.015625)"/>
      <path id="DejaVuSans-2d" d="M 313 2009 
L 1997 2009 
L 1997 1497 
L 313 1497 
L 313 2009 
z
" transform="scale(0.015625)"/>
     </defs>
     <use xlink:href="#DejaVuSans-51"/>
     <use xlink:href="#DejaVuSans-44" x="78.710938"/>
     <use xlink:href="#DejaVuSans-4f" x="155.712891"/>
     <use xlink:href="#DejaVuSans-2d" x="237.173828"/>
     <use xlink:href="#DejaVuSans-45" x="273.257812"/>
     <use xlink:href="#DejaVuSans-53" x="336.441406"/>
    </g>
   </g>
   <g id="text_8">
    <!-- Infer-QDO-ES -->
    <g style="fill: #262626" transform="translate(7.2 357.084464) scale(0.2 -0.2)">
     <defs>
      <path id="DejaVuSans-49" d="M 628 4666 
L 1259 4666 
L 1259 0 
L 628 0 
L 628 4666 
z
" transform="scale(0.015625)"/>
      <path id="DejaVuSans-6e" d="M 3513 2113 
L 3513 0 
L 2938 0 
L 2938 2094 
Q 2938 2591 2744 2837 
Q 2550 3084 2163 3084 
Q 1697 3084 1428 2787 
Q 1159 2491 1159 1978 
L 1159 0 
L 581 0 
L 581 3500 
L 1159 3500 
L 1159 2956 
Q 1366 3272 1645 3428 
Q 1925 3584 2291 3584 
Q 2894 3584 3203 3211 
Q 3513 2838 3513 2113 
z
" transform="scale(0.015625)"/>
      <path id="DejaVuSans-66" d="M 2375 4863 
L 2375 4384 
L 1825 4384 
Q 1516 4384 1395 4259 
Q 1275 4134 1275 3809 
L 1275 3500 
L 2222 3500 
L 2222 3053 
L 1275 3053 
L 1275 0 
L 697 0 
L 697 3053 
L 147 3053 
L 147 3500 
L 697 3500 
L 697 3744 
Q 697 4328 969 4595 
Q 1241 4863 1831 4863 
L 2375 4863 
z
" transform="scale(0.015625)"/>
      <path id="DejaVuSans-65" d="M 3597 1894 
L 3597 1613 
L 953 1613 
Q 991 1019 1311 708 
Q 1631 397 2203 397 
Q 2534 397 2845 478 
Q 3156 559 3463 722 
L 3463 178 
Q 3153 47 2828 -22 
Q 2503 -91 2169 -91 
Q 1331 -91 842 396 
Q 353 884 353 1716 
Q 353 2575 817 3079 
Q 1281 3584 2069 3584 
Q 2775 3584 3186 3129 
Q 3597 2675 3597 1894 
z
M 3022 2063 
Q 3016 2534 2758 2815 
Q 2500 3097 2075 3097 
Q 1594 3097 1305 2825 
Q 1016 2553 972 2059 
L 3022 2063 
z
" transform="scale(0.015625)"/>
      <path id="DejaVuSans-72" d="M 2631 2963 
Q 2534 3019 2420 3045 
Q 2306 3072 2169 3072 
Q 1681 3072 1420 2755 
Q 1159 2438 1159 1844 
L 1159 0 
L 581 0 
L 581 3500 
L 1159 3500 
L 1159 2956 
Q 1341 3275 1631 3429 
Q 1922 3584 2338 3584 
Q 2397 3584 2469 3576 
Q 2541 3569 2628 3553 
L 2631 2963 
z
" transform="scale(0.015625)"/>
     </defs>
     <use xlink:href="#DejaVuSans-49"/>
     <use xlink:href="#DejaVuSans-6e" x="29.492188"/>
     <use xlink:href="#DejaVuSans-66" x="92.871094"/>
     <use xlink:href="#DejaVuSans-65" x="128.076172"/>
     <use xlink:href="#DejaVuSans-72" x="189.599609"/>
     <use xlink:href="#DejaVuSans-2d" x="224.337891"/>
     <use xlink:href="#DejaVuSans-51" x="264.046875"/>
     <use xlink:href="#DejaVuSans-44" x="342.757812"/>
     <use xlink:href="#DejaVuSans-4f" x="419.759766"/>
     <use xlink:href="#DejaVuSans-2d" x="501.220703"/>
     <use xlink:href="#DejaVuSans-45" x="537.304688"/>
     <use xlink:href="#DejaVuSans-53" x="600.488281"/>
    </g>
   </g>
   <g id="text_9">
    <!-- Size-QDO-ES -->
    <g style="fill: #262626" transform="translate(681.064875 312.650179) scale(0.2 -0.2)">
     <defs>
      <path id="DejaVuSans-69" d="M 603 3500 
L 1178 3500 
L 1178 0 
L 603 0 
L 603 3500 
z
M 603 4863 
L 1178 4863 
L 1178 4134 
L 603 4134 
L 603 4863 
z
" transform="scale(0.015625)"/>
      <path id="DejaVuSans-7a" d="M 353 3500 
L 3084 3500 
L 3084 2975 
L 922 459 
L 3084 459 
L 3084 0 
L 275 0 
L 275 525 
L 2438 3041 
L 353 3041 
L 353 3500 
z
" transform="scale(0.015625)"/>
     </defs>
     <use xlink:href="#DejaVuSans-53"/>
     <use xlink:href="#DejaVuSans-69" x="63.476562"/>
     <use xlink:href="#DejaVuSans-7a" x="91.259766"/>
     <use xlink:href="#DejaVuSans-65" x="143.75"/>
     <use xlink:href="#DejaVuSans-2d" x="205.273438"/>
     <use xlink:href="#DejaVuSans-51" x="244.982422"/>
     <use xlink:href="#DejaVuSans-44" x="323.693359"/>
     <use xlink:href="#DejaVuSans-4f" x="400.695312"/>
     <use xlink:href="#DejaVuSans-2d" x="482.15625"/>
     <use xlink:href="#DejaVuSans-45" x="518.240234"/>
     <use xlink:href="#DejaVuSans-53" x="581.423828"/>
    </g>
   </g>
   <g id="text_10">
    <!-- QO-ES -->
    <g style="fill: #262626" transform="translate(681.064875 268.215893) scale(0.2 -0.2)">
     <use xlink:href="#DejaVuSans-51"/>
     <use xlink:href="#DejaVuSans-4f" x="78.710938"/>
     <use xlink:href="#DejaVuSans-2d" x="160.171875"/>
     <use xlink:href="#DejaVuSans-45" x="196.255859"/>
     <use xlink:href="#DejaVuSans-53" x="259.439453"/>
    </g>
   </g>
   <g id="text_11">
    <!-- CD -->
    <g style="fill: #262626" transform="translate(191.072278 47.474911) scale(0.2 -0.2)">
     <defs>
      <path id="DejaVuSans-43" d="M 4122 4306 
L 4122 3641 
Q 3803 3938 3442 4084 
Q 3081 4231 2675 4231 
Q 1875 4231 1450 3742 
Q 1025 3253 1025 2328 
Q 1025 1406 1450 917 
Q 1875 428 2675 428 
Q 3081 428 3442 575 
Q 3803 722 4122 1019 
L 4122 359 
Q 3791 134 3420 21 
Q 3050 -91 2638 -91 
Q 1578 -91 968 557 
Q 359 1206 359 2328 
Q 359 3453 968 4101 
Q 1578 4750 2638 4750 
Q 3056 4750 3426 4639 
Q 3797 4528 4122 4306 
z
" transform="scale(0.015625)"/>
     </defs>
     <use xlink:href="#DejaVuSans-43"/>
     <use xlink:href="#DejaVuSans-44" x="69.824219"/>
    </g>
   </g>
  </g>
 </g>
 <defs>
  <clipPath id="pbb274a2ec6">
   <rect x="41.620875" y="7.2" width="737.82" height="388.8"/>
  </clipPath>
 </defs>
</svg>
