<?xml version="1.0" encoding="utf-8" standalone="no"?>
<!DOCTYPE svg PUBLIC "-//W3C//DTD SVG 1.1//EN"
  "http://www.w3.org/Graphics/SVG/1.1/DTD/svg11.dtd">
<svg xmlns:xlink="http://www.w3.org/1999/xlink" width="545.902031pt" height="399.178187pt" viewBox="0 0 545.902031 399.178187" xmlns="http://www.w3.org/2000/svg" version="1.1">
 <metadata>
  <rdf:RDF xmlns:dc="http://purl.org/dc/elements/1.1/" xmlns:cc="http://creativecommons.org/ns#" xmlns:rdf="http://www.w3.org/1999/02/22-rdf-syntax-ns#">
   <cc:Work>
    <dc:type rdf:resource="http://purl.org/dc/dcmitype/StillImage"/>
    <dc:date>2024-06-06T12:02:04.115976</dc:date>
    <dc:format>image/svg+xml</dc:format>
    <dc:creator>
     <cc:Agent>
      <dc:title>Matplotlib v3.8.4, https://matplotlib.org/</dc:title>
     </cc:Agent>
    </dc:creator>
   </cc:Work>
  </rdf:RDF>
 </metadata>
 <defs>
  <style type="text/css">*{stroke-linejoin: round; stroke-linecap: butt}</style>
 </defs>
 <g id="figure_1">
  <g id="patch_1">
   <path d="M 0 399.178187 
L 545.902031 399.178187 
L 545.902031 0 
L 0 0 
z
" style="fill: #ffffff"/>
  </g>
  <g id="axes_1">
   <g id="patch_2">
    <path d="M 105.352031 355.88475 
L 538.702031 355.88475 
L 538.702031 7.2 
L 105.352031 7.2 
z
" style="fill: #ffffff"/>
   </g>
   <g id="matplotlib.axis_1">
    <g id="xtick_1">
     <g id="line2d_1">
      <path d="M 135.715762 355.88475 
L 135.715762 7.2 
" clip-path="url(#pfa994c5320)" style="fill: none; stroke: #cccccc; stroke-linecap: round"/>
     </g>
     <g id="text_1">
      <!-- $\mathdefault{10^{-3}}$ -->
      <g style="fill: #262626" transform="translate(122.790762 373.743031) scale(0.11 -0.11)">
       <defs>
        <path id="DejaVuSans-31" d="M 794 531 
L 1825 531 
L 1825 4091 
L 703 3866 
L 703 4441 
L 1819 4666 
L 2450 4666 
L 2450 531 
L 3481 531 
L 3481 0 
L 794 0 
L 794 531 
z
" transform="scale(0.015625)"/>
        <path id="DejaVuSans-30" d="M 2034 4250 
Q 1547 4250 1301 3770 
Q 1056 3291 1056 2328 
Q 1056 1369 1301 889 
Q 1547 409 2034 409 
Q 2525 409 2770 889 
Q 3016 1369 3016 2328 
Q 3016 3291 2770 3770 
Q 2525 4250 2034 4250 
z
M 2034 4750 
Q 2819 4750 3233 4129 
Q 3647 3509 3647 2328 
Q 3647 1150 3233 529 
Q 2819 -91 2034 -91 
Q 1250 -91 836 529 
Q 422 1150 422 2328 
Q 422 3509 836 4129 
Q 1250 4750 2034 4750 
z
" transform="scale(0.015625)"/>
        <path id="DejaVuSans-2212" d="M 678 2272 
L 4684 2272 
L 4684 1741 
L 678 1741 
L 678 2272 
z
" transform="scale(0.015625)"/>
        <path id="DejaVuSans-33" d="M 2597 2516 
Q 3050 2419 3304 2112 
Q 3559 1806 3559 1356 
Q 3559 666 3084 287 
Q 2609 -91 1734 -91 
Q 1441 -91 1130 -33 
Q 819 25 488 141 
L 488 750 
Q 750 597 1062 519 
Q 1375 441 1716 441 
Q 2309 441 2620 675 
Q 2931 909 2931 1356 
Q 2931 1769 2642 2001 
Q 2353 2234 1838 2234 
L 1294 2234 
L 1294 2753 
L 1863 2753 
Q 2328 2753 2575 2939 
Q 2822 3125 2822 3475 
Q 2822 3834 2567 4026 
Q 2313 4219 1838 4219 
Q 1578 4219 1281 4162 
Q 984 4106 628 3988 
L 628 4550 
Q 988 4650 1302 4700 
Q 1616 4750 1894 4750 
Q 2613 4750 3031 4423 
Q 3450 4097 3450 3541 
Q 3450 3153 3228 2886 
Q 3006 2619 2597 2516 
z
" transform="scale(0.015625)"/>
       </defs>
       <use xlink:href="#DejaVuSans-31" transform="translate(0 0.765625)"/>
       <use xlink:href="#DejaVuSans-30" transform="translate(63.623047 0.765625)"/>
       <use xlink:href="#DejaVuSans-2212" transform="translate(128.203125 39.046875) scale(0.7)"/>
       <use xlink:href="#DejaVuSans-33" transform="translate(186.855469 39.046875) scale(0.7)"/>
      </g>
     </g>
    </g>
    <g id="xtick_2">
     <g id="line2d_2">
      <path d="M 229.938246 355.88475 
L 229.938246 7.2 
" clip-path="url(#pfa994c5320)" style="fill: none; stroke: #cccccc; stroke-linecap: round"/>
     </g>
     <g id="text_2">
      <!-- $\mathdefault{10^{-2}}$ -->
      <g style="fill: #262626" transform="translate(217.013246 373.743031) scale(0.11 -0.11)">
       <defs>
        <path id="DejaVuSans-32" d="M 1228 531 
L 3431 531 
L 3431 0 
L 469 0 
L 469 531 
Q 828 903 1448 1529 
Q 2069 2156 2228 2338 
Q 2531 2678 2651 2914 
Q 2772 3150 2772 3378 
Q 2772 3750 2511 3984 
Q 2250 4219 1831 4219 
Q 1534 4219 1204 4116 
Q 875 4013 500 3803 
L 500 4441 
Q 881 4594 1212 4672 
Q 1544 4750 1819 4750 
Q 2544 4750 2975 4387 
Q 3406 4025 3406 3419 
Q 3406 3131 3298 2873 
Q 3191 2616 2906 2266 
Q 2828 2175 2409 1742 
Q 1991 1309 1228 531 
z
" transform="scale(0.015625)"/>
       </defs>
       <use xlink:href="#DejaVuSans-31" transform="translate(0 0.765625)"/>
       <use xlink:href="#DejaVuSans-30" transform="translate(63.623047 0.765625)"/>
       <use xlink:href="#DejaVuSans-2212" transform="translate(128.203125 39.046875) scale(0.7)"/>
       <use xlink:href="#DejaVuSans-32" transform="translate(186.855469 39.046875) scale(0.7)"/>
      </g>
     </g>
    </g>
    <g id="xtick_3">
     <g id="line2d_3">
      <path d="M 324.16073 355.88475 
L 324.16073 7.2 
" clip-path="url(#pfa994c5320)" style="fill: none; stroke: #cccccc; stroke-linecap: round"/>
     </g>
     <g id="text_3">
      <!-- $\mathdefault{10^{-1}}$ -->
      <g style="fill: #262626" transform="translate(311.23573 373.743031) scale(0.11 -0.11)">
       <use xlink:href="#DejaVuSans-31" transform="translate(0 0.684375)"/>
       <use xlink:href="#DejaVuSans-30" transform="translate(63.623047 0.684375)"/>
       <use xlink:href="#DejaVuSans-2212" transform="translate(128.203125 38.965625) scale(0.7)"/>
       <use xlink:href="#DejaVuSans-31" transform="translate(186.855469 38.965625) scale(0.7)"/>
      </g>
     </g>
    </g>
    <g id="xtick_4">
     <g id="line2d_4">
      <path d="M 418.383214 355.88475 
L 418.383214 7.2 
" clip-path="url(#pfa994c5320)" style="fill: none; stroke: #cccccc; stroke-linecap: round"/>
     </g>
     <g id="text_4">
      <!-- $\mathdefault{10^{0}}$ -->
      <g style="fill: #262626" transform="translate(408.703214 373.743031) scale(0.11 -0.11)">
       <use xlink:href="#DejaVuSans-31" transform="translate(0 0.765625)"/>
       <use xlink:href="#DejaVuSans-30" transform="translate(63.623047 0.765625)"/>
       <use xlink:href="#DejaVuSans-30" transform="translate(128.203125 39.046875) scale(0.7)"/>
      </g>
     </g>
    </g>
    <g id="xtick_5">
     <g id="line2d_5">
      <path d="M 512.605698 355.88475 
L 512.605698 7.2 
" clip-path="url(#pfa994c5320)" style="fill: none; stroke: #cccccc; stroke-linecap: round"/>
     </g>
     <g id="text_5">
      <!-- $\mathdefault{10^{1}}$ -->
      <g style="fill: #262626" transform="translate(502.925698 373.743031) scale(0.11 -0.11)">
       <use xlink:href="#DejaVuSans-31" transform="translate(0 0.684375)"/>
       <use xlink:href="#DejaVuSans-30" transform="translate(63.623047 0.684375)"/>
       <use xlink:href="#DejaVuSans-31" transform="translate(128.203125 38.965625) scale(0.7)"/>
      </g>
     </g>
    </g>
    <g id="xtick_6"/>
    <g id="xtick_7"/>
    <g id="xtick_8"/>
    <g id="xtick_9"/>
    <g id="xtick_10"/>
    <g id="xtick_11"/>
    <g id="xtick_12"/>
    <g id="xtick_13"/>
    <g id="xtick_14"/>
    <g id="xtick_15"/>
    <g id="xtick_16"/>
    <g id="xtick_17"/>
    <g id="xtick_18"/>
    <g id="xtick_19"/>
    <g id="xtick_20"/>
    <g id="xtick_21"/>
    <g id="xtick_22"/>
    <g id="xtick_23"/>
    <g id="xtick_24"/>
    <g id="xtick_25"/>
    <g id="xtick_26"/>
    <g id="xtick_27"/>
    <g id="xtick_28"/>
    <g id="xtick_29"/>
    <g id="xtick_30"/>
    <g id="xtick_31"/>
    <g id="xtick_32"/>
    <g id="xtick_33"/>
    <g id="xtick_34"/>
    <g id="xtick_35"/>
    <g id="xtick_36"/>
    <g id="xtick_37"/>
    <g id="xtick_38"/>
    <g id="xtick_39"/>
    <g id="xtick_40"/>
    <g id="xtick_41"/>
    <g id="xtick_42"/>
    <g id="text_6">
     <!-- inference_time -->
     <g style="fill: #262626" transform="translate(277.381406 389.148812) scale(0.12 -0.12)">
      <defs>
       <path id="DejaVuSans-69" d="M 603 3500 
L 1178 3500 
L 1178 0 
L 603 0 
L 603 3500 
z
M 603 4863 
L 1178 4863 
L 1178 4134 
L 603 4134 
L 603 4863 
z
" transform="scale(0.015625)"/>
       <path id="DejaVuSans-6e" d="M 3513 2113 
L 3513 0 
L 2938 0 
L 2938 2094 
Q 2938 2591 2744 2837 
Q 2550 3084 2163 3084 
Q 1697 3084 1428 2787 
Q 1159 2491 1159 1978 
L 1159 0 
L 581 0 
L 581 3500 
L 1159 3500 
L 1159 2956 
Q 1366 3272 1645 3428 
Q 1925 3584 2291 3584 
Q 2894 3584 3203 3211 
Q 3513 2838 3513 2113 
z
" transform="scale(0.015625)"/>
       <path id="DejaVuSans-66" d="M 2375 4863 
L 2375 4384 
L 1825 4384 
Q 1516 4384 1395 4259 
Q 1275 4134 1275 3809 
L 1275 3500 
L 2222 3500 
L 2222 3053 
L 1275 3053 
L 1275 0 
L 697 0 
L 697 3053 
L 147 3053 
L 147 3500 
L 697 3500 
L 697 3744 
Q 697 4328 969 4595 
Q 1241 4863 1831 4863 
L 2375 4863 
z
" transform="scale(0.015625)"/>
       <path id="DejaVuSans-65" d="M 3597 1894 
L 3597 1613 
L 953 1613 
Q 991 1019 1311 708 
Q 1631 397 2203 397 
Q 2534 397 2845 478 
Q 3156 559 3463 722 
L 3463 178 
Q 3153 47 2828 -22 
Q 2503 -91 2169 -91 
Q 1331 -91 842 396 
Q 353 884 353 1716 
Q 353 2575 817 3079 
Q 1281 3584 2069 3584 
Q 2775 3584 3186 3129 
Q 3597 2675 3597 1894 
z
M 3022 2063 
Q 3016 2534 2758 2815 
Q 2500 3097 2075 3097 
Q 1594 3097 1305 2825 
Q 1016 2553 972 2059 
L 3022 2063 
z
" transform="scale(0.015625)"/>
       <path id="DejaVuSans-72" d="M 2631 2963 
Q 2534 3019 2420 3045 
Q 2306 3072 2169 3072 
Q 1681 3072 1420 2755 
Q 1159 2438 1159 1844 
L 1159 0 
L 581 0 
L 581 3500 
L 1159 3500 
L 1159 2956 
Q 1341 3275 1631 3429 
Q 1922 3584 2338 3584 
Q 2397 3584 2469 3576 
Q 2541 3569 2628 3553 
L 2631 2963 
z
" transform="scale(0.015625)"/>
       <path id="DejaVuSans-63" d="M 3122 3366 
L 3122 2828 
Q 2878 2963 2633 3030 
Q 2388 3097 2138 3097 
Q 1578 3097 1268 2742 
Q 959 2388 959 1747 
Q 959 1106 1268 751 
Q 1578 397 2138 397 
Q 2388 397 2633 464 
Q 2878 531 3122 666 
L 3122 134 
Q 2881 22 2623 -34 
Q 2366 -91 2075 -91 
Q 1284 -91 818 406 
Q 353 903 353 1747 
Q 353 2603 823 3093 
Q 1294 3584 2113 3584 
Q 2378 3584 2631 3529 
Q 2884 3475 3122 3366 
z
" transform="scale(0.015625)"/>
       <path id="DejaVuSans-5f" d="M 3263 -1063 
L 3263 -1509 
L -63 -1509 
L -63 -1063 
L 3263 -1063 
z
" transform="scale(0.015625)"/>
       <path id="DejaVuSans-74" d="M 1172 4494 
L 1172 3500 
L 2356 3500 
L 2356 3053 
L 1172 3053 
L 1172 1153 
Q 1172 725 1289 603 
Q 1406 481 1766 481 
L 2356 481 
L 2356 0 
L 1766 0 
Q 1100 0 847 248 
Q 594 497 594 1153 
L 594 3053 
L 172 3053 
L 172 3500 
L 594 3500 
L 594 4494 
L 1172 4494 
z
" transform="scale(0.015625)"/>
       <path id="DejaVuSans-6d" d="M 3328 2828 
Q 3544 3216 3844 3400 
Q 4144 3584 4550 3584 
Q 5097 3584 5394 3201 
Q 5691 2819 5691 2113 
L 5691 0 
L 5113 0 
L 5113 2094 
Q 5113 2597 4934 2840 
Q 4756 3084 4391 3084 
Q 3944 3084 3684 2787 
Q 3425 2491 3425 1978 
L 3425 0 
L 2847 0 
L 2847 2094 
Q 2847 2600 2669 2842 
Q 2491 3084 2119 3084 
Q 1678 3084 1418 2786 
Q 1159 2488 1159 1978 
L 1159 0 
L 581 0 
L 581 3500 
L 1159 3500 
L 1159 2956 
Q 1356 3278 1631 3431 
Q 1906 3584 2284 3584 
Q 2666 3584 2933 3390 
Q 3200 3197 3328 2828 
z
" transform="scale(0.015625)"/>
      </defs>
      <use xlink:href="#DejaVuSans-69"/>
      <use xlink:href="#DejaVuSans-6e" x="27.783203"/>
      <use xlink:href="#DejaVuSans-66" x="91.162109"/>
      <use xlink:href="#DejaVuSans-65" x="126.367188"/>
      <use xlink:href="#DejaVuSans-72" x="187.890625"/>
      <use xlink:href="#DejaVuSans-65" x="226.753906"/>
      <use xlink:href="#DejaVuSans-6e" x="288.277344"/>
      <use xlink:href="#DejaVuSans-63" x="351.65625"/>
      <use xlink:href="#DejaVuSans-65" x="406.636719"/>
      <use xlink:href="#DejaVuSans-5f" x="468.160156"/>
      <use xlink:href="#DejaVuSans-74" x="518.160156"/>
      <use xlink:href="#DejaVuSans-69" x="557.369141"/>
      <use xlink:href="#DejaVuSans-6d" x="585.152344"/>
      <use xlink:href="#DejaVuSans-65" x="682.564453"/>
     </g>
    </g>
   </g>
   <g id="matplotlib.axis_2">
    <g id="ytick_1">
     <g id="line2d_6">
      <path d="M 105.352031 42.068475 
L 538.702031 42.068475 
" clip-path="url(#pfa994c5320)" style="fill: none; stroke: #cccccc; stroke-linecap: round"/>
     </g>
     <g id="text_7">
      <!-- GES -->
      <g style="fill: #262626" transform="translate(73.394844 46.247616) scale(0.11 -0.11)">
       <defs>
        <path id="DejaVuSans-47" d="M 3809 666 
L 3809 1919 
L 2778 1919 
L 2778 2438 
L 4434 2438 
L 4434 434 
Q 4069 175 3628 42 
Q 3188 -91 2688 -91 
Q 1594 -91 976 548 
Q 359 1188 359 2328 
Q 359 3472 976 4111 
Q 1594 4750 2688 4750 
Q 3144 4750 3555 4637 
Q 3966 4525 4313 4306 
L 4313 3634 
Q 3963 3931 3569 4081 
Q 3175 4231 2741 4231 
Q 1884 4231 1454 3753 
Q 1025 3275 1025 2328 
Q 1025 1384 1454 906 
Q 1884 428 2741 428 
Q 3075 428 3337 486 
Q 3600 544 3809 666 
z
" transform="scale(0.015625)"/>
        <path id="DejaVuSans-45" d="M 628 4666 
L 3578 4666 
L 3578 4134 
L 1259 4134 
L 1259 2753 
L 3481 2753 
L 3481 2222 
L 1259 2222 
L 1259 531 
L 3634 531 
L 3634 0 
L 628 0 
L 628 4666 
z
" transform="scale(0.015625)"/>
        <path id="DejaVuSans-53" d="M 3425 4513 
L 3425 3897 
Q 3066 4069 2747 4153 
Q 2428 4238 2131 4238 
Q 1616 4238 1336 4038 
Q 1056 3838 1056 3469 
Q 1056 3159 1242 3001 
Q 1428 2844 1947 2747 
L 2328 2669 
Q 3034 2534 3370 2195 
Q 3706 1856 3706 1288 
Q 3706 609 3251 259 
Q 2797 -91 1919 -91 
Q 1588 -91 1214 -16 
Q 841 59 441 206 
L 441 856 
Q 825 641 1194 531 
Q 1563 422 1919 422 
Q 2459 422 2753 634 
Q 3047 847 3047 1241 
Q 3047 1584 2836 1778 
Q 2625 1972 2144 2069 
L 1759 2144 
Q 1053 2284 737 2584 
Q 422 2884 422 3419 
Q 422 4038 858 4394 
Q 1294 4750 2059 4750 
Q 2388 4750 2728 4690 
Q 3069 4631 3425 4513 
z
" transform="scale(0.015625)"/>
       </defs>
       <use xlink:href="#DejaVuSans-47"/>
       <use xlink:href="#DejaVuSans-45" x="77.490234"/>
       <use xlink:href="#DejaVuSans-53" x="140.673828"/>
      </g>
     </g>
    </g>
    <g id="ytick_2">
     <g id="line2d_7">
      <path d="M 105.352031 111.805425 
L 538.702031 111.805425 
" clip-path="url(#pfa994c5320)" style="fill: none; stroke: #cccccc; stroke-linecap: round"/>
     </g>
     <g id="text_8">
      <!-- Infer-QDO-ES -->
      <g style="fill: #262626" transform="translate(22.81375 115.984566) scale(0.11 -0.11)">
       <defs>
        <path id="DejaVuSans-49" d="M 628 4666 
L 1259 4666 
L 1259 0 
L 628 0 
L 628 4666 
z
" transform="scale(0.015625)"/>
        <path id="DejaVuSans-2d" d="M 313 2009 
L 1997 2009 
L 1997 1497 
L 313 1497 
L 313 2009 
z
" transform="scale(0.015625)"/>
        <path id="DejaVuSans-51" d="M 2522 4238 
Q 1834 4238 1429 3725 
Q 1025 3213 1025 2328 
Q 1025 1447 1429 934 
Q 1834 422 2522 422 
Q 3209 422 3611 934 
Q 4013 1447 4013 2328 
Q 4013 3213 3611 3725 
Q 3209 4238 2522 4238 
z
M 3406 84 
L 4238 -825 
L 3475 -825 
L 2784 -78 
Q 2681 -84 2626 -87 
Q 2572 -91 2522 -91 
Q 1538 -91 948 567 
Q 359 1225 359 2328 
Q 359 3434 948 4092 
Q 1538 4750 2522 4750 
Q 3503 4750 4090 4092 
Q 4678 3434 4678 2328 
Q 4678 1516 4351 937 
Q 4025 359 3406 84 
z
" transform="scale(0.015625)"/>
        <path id="DejaVuSans-44" d="M 1259 4147 
L 1259 519 
L 2022 519 
Q 2988 519 3436 956 
Q 3884 1394 3884 2338 
Q 3884 3275 3436 3711 
Q 2988 4147 2022 4147 
L 1259 4147 
z
M 628 4666 
L 1925 4666 
Q 3281 4666 3915 4102 
Q 4550 3538 4550 2338 
Q 4550 1131 3912 565 
Q 3275 0 1925 0 
L 628 0 
L 628 4666 
z
" transform="scale(0.015625)"/>
        <path id="DejaVuSans-4f" d="M 2522 4238 
Q 1834 4238 1429 3725 
Q 1025 3213 1025 2328 
Q 1025 1447 1429 934 
Q 1834 422 2522 422 
Q 3209 422 3611 934 
Q 4013 1447 4013 2328 
Q 4013 3213 3611 3725 
Q 3209 4238 2522 4238 
z
M 2522 4750 
Q 3503 4750 4090 4092 
Q 4678 3434 4678 2328 
Q 4678 1225 4090 567 
Q 3503 -91 2522 -91 
Q 1538 -91 948 565 
Q 359 1222 359 2328 
Q 359 3434 948 4092 
Q 1538 4750 2522 4750 
z
" transform="scale(0.015625)"/>
       </defs>
       <use xlink:href="#DejaVuSans-49"/>
       <use xlink:href="#DejaVuSans-6e" x="29.492188"/>
       <use xlink:href="#DejaVuSans-66" x="92.871094"/>
       <use xlink:href="#DejaVuSans-65" x="128.076172"/>
       <use xlink:href="#DejaVuSans-72" x="189.599609"/>
       <use xlink:href="#DejaVuSans-2d" x="224.337891"/>
       <use xlink:href="#DejaVuSans-51" x="264.046875"/>
       <use xlink:href="#DejaVuSans-44" x="342.757812"/>
       <use xlink:href="#DejaVuSans-4f" x="419.759766"/>
       <use xlink:href="#DejaVuSans-2d" x="501.220703"/>
       <use xlink:href="#DejaVuSans-45" x="537.304688"/>
       <use xlink:href="#DejaVuSans-53" x="600.488281"/>
      </g>
     </g>
    </g>
    <g id="ytick_3">
     <g id="line2d_8">
      <path d="M 105.352031 181.542375 
L 538.702031 181.542375 
" clip-path="url(#pfa994c5320)" style="fill: none; stroke: #cccccc; stroke-linecap: round"/>
     </g>
     <g id="text_9">
      <!-- QDO-ES -->
      <g style="fill: #262626" transform="translate(51.858906 185.721516) scale(0.11 -0.11)">
       <use xlink:href="#DejaVuSans-51"/>
       <use xlink:href="#DejaVuSans-44" x="78.710938"/>
       <use xlink:href="#DejaVuSans-4f" x="155.712891"/>
       <use xlink:href="#DejaVuSans-2d" x="237.173828"/>
       <use xlink:href="#DejaVuSans-45" x="273.257812"/>
       <use xlink:href="#DejaVuSans-53" x="336.441406"/>
      </g>
     </g>
    </g>
    <g id="ytick_4">
     <g id="line2d_9">
      <path d="M 105.352031 251.279325 
L 538.702031 251.279325 
" clip-path="url(#pfa994c5320)" style="fill: none; stroke: #cccccc; stroke-linecap: round"/>
     </g>
     <g id="text_10">
      <!-- QO-ES -->
      <g style="fill: #262626" transform="translate(60.328906 255.458466) scale(0.11 -0.11)">
       <use xlink:href="#DejaVuSans-51"/>
       <use xlink:href="#DejaVuSans-4f" x="78.710938"/>
       <use xlink:href="#DejaVuSans-2d" x="160.171875"/>
       <use xlink:href="#DejaVuSans-45" x="196.255859"/>
       <use xlink:href="#DejaVuSans-53" x="259.439453"/>
      </g>
     </g>
    </g>
    <g id="ytick_5">
     <g id="line2d_10">
      <path d="M 105.352031 321.016275 
L 538.702031 321.016275 
" clip-path="url(#pfa994c5320)" style="fill: none; stroke: #cccccc; stroke-linecap: round"/>
     </g>
     <g id="text_11">
      <!-- Size-QDO-ES -->
      <g style="fill: #262626" transform="translate(24.910625 325.195416) scale(0.11 -0.11)">
       <defs>
        <path id="DejaVuSans-7a" d="M 353 3500 
L 3084 3500 
L 3084 2975 
L 922 459 
L 3084 459 
L 3084 0 
L 275 0 
L 275 525 
L 2438 3041 
L 353 3041 
L 353 3500 
z
" transform="scale(0.015625)"/>
       </defs>
       <use xlink:href="#DejaVuSans-53"/>
       <use xlink:href="#DejaVuSans-69" x="63.476562"/>
       <use xlink:href="#DejaVuSans-7a" x="91.259766"/>
       <use xlink:href="#DejaVuSans-65" x="143.75"/>
       <use xlink:href="#DejaVuSans-2d" x="205.273438"/>
       <use xlink:href="#DejaVuSans-51" x="244.982422"/>
       <use xlink:href="#DejaVuSans-44" x="323.693359"/>
       <use xlink:href="#DejaVuSans-4f" x="400.695312"/>
       <use xlink:href="#DejaVuSans-2d" x="482.15625"/>
       <use xlink:href="#DejaVuSans-45" x="518.240234"/>
       <use xlink:href="#DejaVuSans-53" x="581.423828"/>
      </g>
     </g>
    </g>
    <g id="text_12">
     <!-- Ensemble Method -->
     <g style="fill: #262626" transform="translate(16.318125 235.376437) rotate(-90) scale(0.12 -0.12)">
      <defs>
       <path id="DejaVuSans-73" d="M 2834 3397 
L 2834 2853 
Q 2591 2978 2328 3040 
Q 2066 3103 1784 3103 
Q 1356 3103 1142 2972 
Q 928 2841 928 2578 
Q 928 2378 1081 2264 
Q 1234 2150 1697 2047 
L 1894 2003 
Q 2506 1872 2764 1633 
Q 3022 1394 3022 966 
Q 3022 478 2636 193 
Q 2250 -91 1575 -91 
Q 1294 -91 989 -36 
Q 684 19 347 128 
L 347 722 
Q 666 556 975 473 
Q 1284 391 1588 391 
Q 1994 391 2212 530 
Q 2431 669 2431 922 
Q 2431 1156 2273 1281 
Q 2116 1406 1581 1522 
L 1381 1569 
Q 847 1681 609 1914 
Q 372 2147 372 2553 
Q 372 3047 722 3315 
Q 1072 3584 1716 3584 
Q 2034 3584 2315 3537 
Q 2597 3491 2834 3397 
z
" transform="scale(0.015625)"/>
       <path id="DejaVuSans-62" d="M 3116 1747 
Q 3116 2381 2855 2742 
Q 2594 3103 2138 3103 
Q 1681 3103 1420 2742 
Q 1159 2381 1159 1747 
Q 1159 1113 1420 752 
Q 1681 391 2138 391 
Q 2594 391 2855 752 
Q 3116 1113 3116 1747 
z
M 1159 2969 
Q 1341 3281 1617 3432 
Q 1894 3584 2278 3584 
Q 2916 3584 3314 3078 
Q 3713 2572 3713 1747 
Q 3713 922 3314 415 
Q 2916 -91 2278 -91 
Q 1894 -91 1617 61 
Q 1341 213 1159 525 
L 1159 0 
L 581 0 
L 581 4863 
L 1159 4863 
L 1159 2969 
z
" transform="scale(0.015625)"/>
       <path id="DejaVuSans-6c" d="M 603 4863 
L 1178 4863 
L 1178 0 
L 603 0 
L 603 4863 
z
" transform="scale(0.015625)"/>
       <path id="DejaVuSans-20" transform="scale(0.015625)"/>
       <path id="DejaVuSans-4d" d="M 628 4666 
L 1569 4666 
L 2759 1491 
L 3956 4666 
L 4897 4666 
L 4897 0 
L 4281 0 
L 4281 4097 
L 3078 897 
L 2444 897 
L 1241 4097 
L 1241 0 
L 628 0 
L 628 4666 
z
" transform="scale(0.015625)"/>
       <path id="DejaVuSans-68" d="M 3513 2113 
L 3513 0 
L 2938 0 
L 2938 2094 
Q 2938 2591 2744 2837 
Q 2550 3084 2163 3084 
Q 1697 3084 1428 2787 
Q 1159 2491 1159 1978 
L 1159 0 
L 581 0 
L 581 4863 
L 1159 4863 
L 1159 2956 
Q 1366 3272 1645 3428 
Q 1925 3584 2291 3584 
Q 2894 3584 3203 3211 
Q 3513 2838 3513 2113 
z
" transform="scale(0.015625)"/>
       <path id="DejaVuSans-6f" d="M 1959 3097 
Q 1497 3097 1228 2736 
Q 959 2375 959 1747 
Q 959 1119 1226 758 
Q 1494 397 1959 397 
Q 2419 397 2687 759 
Q 2956 1122 2956 1747 
Q 2956 2369 2687 2733 
Q 2419 3097 1959 3097 
z
M 1959 3584 
Q 2709 3584 3137 3096 
Q 3566 2609 3566 1747 
Q 3566 888 3137 398 
Q 2709 -91 1959 -91 
Q 1206 -91 779 398 
Q 353 888 353 1747 
Q 353 2609 779 3096 
Q 1206 3584 1959 3584 
z
" transform="scale(0.015625)"/>
       <path id="DejaVuSans-64" d="M 2906 2969 
L 2906 4863 
L 3481 4863 
L 3481 0 
L 2906 0 
L 2906 525 
Q 2725 213 2448 61 
Q 2172 -91 1784 -91 
Q 1150 -91 751 415 
Q 353 922 353 1747 
Q 353 2572 751 3078 
Q 1150 3584 1784 3584 
Q 2172 3584 2448 3432 
Q 2725 3281 2906 2969 
z
M 947 1747 
Q 947 1113 1208 752 
Q 1469 391 1925 391 
Q 2381 391 2643 752 
Q 2906 1113 2906 1747 
Q 2906 2381 2643 2742 
Q 2381 3103 1925 3103 
Q 1469 3103 1208 2742 
Q 947 2381 947 1747 
z
" transform="scale(0.015625)"/>
      </defs>
      <use xlink:href="#DejaVuSans-45"/>
      <use xlink:href="#DejaVuSans-6e" x="63.183594"/>
      <use xlink:href="#DejaVuSans-73" x="126.5625"/>
      <use xlink:href="#DejaVuSans-65" x="178.662109"/>
      <use xlink:href="#DejaVuSans-6d" x="240.185547"/>
      <use xlink:href="#DejaVuSans-62" x="337.597656"/>
      <use xlink:href="#DejaVuSans-6c" x="401.074219"/>
      <use xlink:href="#DejaVuSans-65" x="428.857422"/>
      <use xlink:href="#DejaVuSans-20" x="490.380859"/>
      <use xlink:href="#DejaVuSans-4d" x="522.167969"/>
      <use xlink:href="#DejaVuSans-65" x="608.447266"/>
      <use xlink:href="#DejaVuSans-74" x="669.970703"/>
      <use xlink:href="#DejaVuSans-68" x="709.179688"/>
      <use xlink:href="#DejaVuSans-6f" x="772.558594"/>
      <use xlink:href="#DejaVuSans-64" x="833.740234"/>
     </g>
    </g>
   </g>
   <g id="patch_3">
    <path d="M 213.587961 14.173695 
L 213.587961 69.963255 
L 255.450867 69.963255 
L 255.450867 14.173695 
L 213.587961 14.173695 
z
" clip-path="url(#pfa994c5320)" style="fill: #abc9ea; stroke: #6f6f6f; stroke-width: 2; stroke-linejoin: miter"/>
   </g>
   <g id="line2d_11">
    <path d="M 213.587961 42.068475 
L 125.049759 42.068475 
" clip-path="url(#pfa994c5320)" style="fill: none; stroke: #6f6f6f; stroke-width: 2"/>
   </g>
   <g id="line2d_12">
    <path d="M 255.450867 42.068475 
L 277.931006 42.068475 
" clip-path="url(#pfa994c5320)" style="fill: none; stroke: #6f6f6f; stroke-width: 2"/>
   </g>
   <g id="line2d_13">
    <path d="M 125.049759 28.121085 
L 125.049759 56.015865 
" clip-path="url(#pfa994c5320)" style="fill: none; stroke: #6f6f6f; stroke-width: 2; stroke-linecap: round"/>
   </g>
   <g id="line2d_14">
    <path d="M 277.931006 28.121085 
L 277.931006 56.015865 
" clip-path="url(#pfa994c5320)" style="fill: none; stroke: #6f6f6f; stroke-width: 2; stroke-linecap: round"/>
   </g>
   <g id="line2d_15">
    <defs>
     <path id="m5eba329614" d="M 0 3 
C 0.795609 3 1.55874 2.683901 2.12132 2.12132 
C 2.683901 1.55874 3 0.795609 3 0 
C 3 -0.795609 2.683901 -1.55874 2.12132 -2.12132 
C 1.55874 -2.683901 0.795609 -3 0 -3 
C -0.795609 -3 -1.55874 -2.683901 -2.12132 -2.12132 
C -2.683901 -1.55874 -3 -0.795609 -3 0 
C -3 0.795609 -2.683901 1.55874 -2.12132 2.12132 
C -1.55874 2.683901 -0.795609 3 0 3 
z
" style="stroke: #6f6f6f"/>
    </defs>
    <g clip-path="url(#pfa994c5320)">
     <use xlink:href="#m5eba329614" x="432.746303" y="42.068475" style="fill-opacity: 0; stroke: #6f6f6f"/>
     <use xlink:href="#m5eba329614" x="446.33793" y="42.068475" style="fill-opacity: 0; stroke: #6f6f6f"/>
     <use xlink:href="#m5eba329614" x="443.594166" y="42.068475" style="fill-opacity: 0; stroke: #6f6f6f"/>
     <use xlink:href="#m5eba329614" x="370.861474" y="42.068475" style="fill-opacity: 0; stroke: #6f6f6f"/>
     <use xlink:href="#m5eba329614" x="447.11709" y="42.068475" style="fill-opacity: 0; stroke: #6f6f6f"/>
     <use xlink:href="#m5eba329614" x="437.415483" y="42.068475" style="fill-opacity: 0; stroke: #6f6f6f"/>
     <use xlink:href="#m5eba329614" x="306.466684" y="42.068475" style="fill-opacity: 0; stroke: #6f6f6f"/>
     <use xlink:href="#m5eba329614" x="298.026347" y="42.068475" style="fill-opacity: 0; stroke: #6f6f6f"/>
     <use xlink:href="#m5eba329614" x="481.847179" y="42.068475" style="fill-opacity: 0; stroke: #6f6f6f"/>
     <use xlink:href="#m5eba329614" x="394.359813" y="42.068475" style="fill-opacity: 0; stroke: #6f6f6f"/>
     <use xlink:href="#m5eba329614" x="287.855461" y="42.068475" style="fill-opacity: 0; stroke: #6f6f6f"/>
     <use xlink:href="#m5eba329614" x="309.75623" y="42.068475" style="fill-opacity: 0; stroke: #6f6f6f"/>
     <use xlink:href="#m5eba329614" x="301.463288" y="42.068475" style="fill-opacity: 0; stroke: #6f6f6f"/>
     <use xlink:href="#m5eba329614" x="360.076143" y="42.068475" style="fill-opacity: 0; stroke: #6f6f6f"/>
     <use xlink:href="#m5eba329614" x="309.141193" y="42.068475" style="fill-opacity: 0; stroke: #6f6f6f"/>
    </g>
   </g>
   <g id="patch_4">
    <path d="M 249.166421 83.910645 
L 249.166421 139.700205 
L 285.765409 139.700205 
L 285.765409 83.910645 
L 249.166421 83.910645 
z
" clip-path="url(#pfa994c5320)" style="fill: #efb792; stroke: #6f6f6f; stroke-width: 2; stroke-linejoin: miter"/>
   </g>
   <g id="line2d_16">
    <path d="M 249.166421 111.805425 
L 163.861709 111.805425 
" clip-path="url(#pfa994c5320)" style="fill: none; stroke: #6f6f6f; stroke-width: 2"/>
   </g>
   <g id="line2d_17">
    <path d="M 285.765409 111.805425 
L 307.363655 111.805425 
" clip-path="url(#pfa994c5320)" style="fill: none; stroke: #6f6f6f; stroke-width: 2"/>
   </g>
   <g id="line2d_18">
    <path d="M 163.861709 97.858035 
L 163.861709 125.752815 
" clip-path="url(#pfa994c5320)" style="fill: none; stroke: #6f6f6f; stroke-width: 2; stroke-linecap: round"/>
   </g>
   <g id="line2d_19">
    <path d="M 307.363655 97.858035 
L 307.363655 125.752815 
" clip-path="url(#pfa994c5320)" style="fill: none; stroke: #6f6f6f; stroke-width: 2; stroke-linecap: round"/>
   </g>
   <g id="line2d_20">
    <g clip-path="url(#pfa994c5320)">
     <use xlink:href="#m5eba329614" x="314.233777" y="111.805425" style="fill-opacity: 0; stroke: #6f6f6f"/>
     <use xlink:href="#m5eba329614" x="446.737716" y="111.805425" style="fill-opacity: 0; stroke: #6f6f6f"/>
     <use xlink:href="#m5eba329614" x="452.351784" y="111.805425" style="fill-opacity: 0; stroke: #6f6f6f"/>
     <use xlink:href="#m5eba329614" x="457.302134" y="111.805425" style="fill-opacity: 0; stroke: #6f6f6f"/>
     <use xlink:href="#m5eba329614" x="392.390282" y="111.805425" style="fill-opacity: 0; stroke: #6f6f6f"/>
     <use xlink:href="#m5eba329614" x="447.225717" y="111.805425" style="fill-opacity: 0; stroke: #6f6f6f"/>
     <use xlink:href="#m5eba329614" x="449.713469" y="111.805425" style="fill-opacity: 0; stroke: #6f6f6f"/>
     <use xlink:href="#m5eba329614" x="321.737711" y="111.805425" style="fill-opacity: 0; stroke: #6f6f6f"/>
     <use xlink:href="#m5eba329614" x="338.62082" y="111.805425" style="fill-opacity: 0; stroke: #6f6f6f"/>
     <use xlink:href="#m5eba329614" x="331.329597" y="111.805425" style="fill-opacity: 0; stroke: #6f6f6f"/>
     <use xlink:href="#m5eba329614" x="508.246844" y="111.805425" style="fill-opacity: 0; stroke: #6f6f6f"/>
     <use xlink:href="#m5eba329614" x="407.195786" y="111.805425" style="fill-opacity: 0; stroke: #6f6f6f"/>
     <use xlink:href="#m5eba329614" x="324.793944" y="111.805425" style="fill-opacity: 0; stroke: #6f6f6f"/>
     <use xlink:href="#m5eba329614" x="386.57535" y="111.805425" style="fill-opacity: 0; stroke: #6f6f6f"/>
     <use xlink:href="#m5eba329614" x="312.597632" y="111.805425" style="fill-opacity: 0; stroke: #6f6f6f"/>
    </g>
   </g>
   <g id="patch_5">
    <path d="M 248.196026 153.647595 
L 248.196026 209.437155 
L 298.683197 209.437155 
L 298.683197 153.647595 
L 248.196026 153.647595 
z
" clip-path="url(#pfa994c5320)" style="fill: #98daa7; stroke: #6f6f6f; stroke-width: 2; stroke-linejoin: miter"/>
   </g>
   <g id="line2d_21">
    <path d="M 248.196026 181.542375 
L 163.549037 181.542375 
" clip-path="url(#pfa994c5320)" style="fill: none; stroke: #6f6f6f; stroke-width: 2"/>
   </g>
   <g id="line2d_22">
    <path d="M 298.683197 181.542375 
L 328.12893 181.542375 
" clip-path="url(#pfa994c5320)" style="fill: none; stroke: #6f6f6f; stroke-width: 2"/>
   </g>
   <g id="line2d_23">
    <path d="M 163.549037 167.594985 
L 163.549037 195.489765 
" clip-path="url(#pfa994c5320)" style="fill: none; stroke: #6f6f6f; stroke-width: 2; stroke-linecap: round"/>
   </g>
   <g id="line2d_24">
    <path d="M 328.12893 167.594985 
L 328.12893 195.489765 
" clip-path="url(#pfa994c5320)" style="fill: none; stroke: #6f6f6f; stroke-width: 2; stroke-linecap: round"/>
   </g>
   <g id="line2d_25">
    <g clip-path="url(#pfa994c5320)">
     <use xlink:href="#m5eba329614" x="453.604852" y="181.542375" style="fill-opacity: 0; stroke: #6f6f6f"/>
     <use xlink:href="#m5eba329614" x="453.669716" y="181.542375" style="fill-opacity: 0; stroke: #6f6f6f"/>
     <use xlink:href="#m5eba329614" x="462.843307" y="181.542375" style="fill-opacity: 0; stroke: #6f6f6f"/>
     <use xlink:href="#m5eba329614" x="403.242054" y="181.542375" style="fill-opacity: 0; stroke: #6f6f6f"/>
     <use xlink:href="#m5eba329614" x="453.58734" y="181.542375" style="fill-opacity: 0; stroke: #6f6f6f"/>
     <use xlink:href="#m5eba329614" x="453.911019" y="181.542375" style="fill-opacity: 0; stroke: #6f6f6f"/>
     <use xlink:href="#m5eba329614" x="330.599739" y="181.542375" style="fill-opacity: 0; stroke: #6f6f6f"/>
     <use xlink:href="#m5eba329614" x="334.081547" y="181.542375" style="fill-opacity: 0; stroke: #6f6f6f"/>
     <use xlink:href="#m5eba329614" x="331.687023" y="181.542375" style="fill-opacity: 0; stroke: #6f6f6f"/>
     <use xlink:href="#m5eba329614" x="515.498311" y="181.542375" style="fill-opacity: 0; stroke: #6f6f6f"/>
     <use xlink:href="#m5eba329614" x="409.911176" y="181.542375" style="fill-opacity: 0; stroke: #6f6f6f"/>
     <use xlink:href="#m5eba329614" x="384.667249" y="181.542375" style="fill-opacity: 0; stroke: #6f6f6f"/>
    </g>
   </g>
   <g id="patch_6">
    <path d="M 260.380015 223.384545 
L 260.380015 279.174105 
L 301.041445 279.174105 
L 301.041445 223.384545 
L 260.380015 223.384545 
z
" clip-path="url(#pfa994c5320)" style="fill: #f3aba8; stroke: #6f6f6f; stroke-width: 2; stroke-linejoin: miter"/>
   </g>
   <g id="line2d_26">
    <path d="M 260.380015 251.279325 
L 158.108885 251.279325 
" clip-path="url(#pfa994c5320)" style="fill: none; stroke: #6f6f6f; stroke-width: 2"/>
   </g>
   <g id="line2d_27">
    <path d="M 301.041445 251.279325 
L 324.642044 251.279325 
" clip-path="url(#pfa994c5320)" style="fill: none; stroke: #6f6f6f; stroke-width: 2"/>
   </g>
   <g id="line2d_28">
    <path d="M 158.108885 237.331935 
L 158.108885 265.226715 
" clip-path="url(#pfa994c5320)" style="fill: none; stroke: #6f6f6f; stroke-width: 2; stroke-linecap: round"/>
   </g>
   <g id="line2d_29">
    <path d="M 324.642044 237.331935 
L 324.642044 265.226715 
" clip-path="url(#pfa994c5320)" style="fill: none; stroke: #6f6f6f; stroke-width: 2; stroke-linecap: round"/>
   </g>
   <g id="line2d_30">
    <g clip-path="url(#pfa994c5320)">
     <use xlink:href="#m5eba329614" x="457.966603" y="251.279325" style="fill-opacity: 0; stroke: #6f6f6f"/>
     <use xlink:href="#m5eba329614" x="464.129045" y="251.279325" style="fill-opacity: 0; stroke: #6f6f6f"/>
     <use xlink:href="#m5eba329614" x="468.252564" y="251.279325" style="fill-opacity: 0; stroke: #6f6f6f"/>
     <use xlink:href="#m5eba329614" x="400.311004" y="251.279325" style="fill-opacity: 0; stroke: #6f6f6f"/>
     <use xlink:href="#m5eba329614" x="459.61866" y="251.279325" style="fill-opacity: 0; stroke: #6f6f6f"/>
     <use xlink:href="#m5eba329614" x="460.563786" y="251.279325" style="fill-opacity: 0; stroke: #6f6f6f"/>
     <use xlink:href="#m5eba329614" x="334.197109" y="251.279325" style="fill-opacity: 0; stroke: #6f6f6f"/>
     <use xlink:href="#m5eba329614" x="519.004304" y="251.279325" style="fill-opacity: 0; stroke: #6f6f6f"/>
     <use xlink:href="#m5eba329614" x="414.899151" y="251.279325" style="fill-opacity: 0; stroke: #6f6f6f"/>
     <use xlink:href="#m5eba329614" x="333.003588" y="251.279325" style="fill-opacity: 0; stroke: #6f6f6f"/>
     <use xlink:href="#m5eba329614" x="397.958637" y="251.279325" style="fill-opacity: 0; stroke: #6f6f6f"/>
    </g>
   </g>
   <g id="patch_7">
    <path d="M 247.345688 293.121495 
L 247.345688 348.911055 
L 291.21768 348.911055 
L 291.21768 293.121495 
L 247.345688 293.121495 
z
" clip-path="url(#pfa994c5320)" style="fill: #d3c3f7; stroke: #6f6f6f; stroke-width: 2; stroke-linejoin: miter"/>
   </g>
   <g id="line2d_31">
    <path d="M 247.345688 321.016275 
L 168.42326 321.016275 
" clip-path="url(#pfa994c5320)" style="fill: none; stroke: #6f6f6f; stroke-width: 2"/>
   </g>
   <g id="line2d_32">
    <path d="M 291.21768 321.016275 
L 311.022467 321.016275 
" clip-path="url(#pfa994c5320)" style="fill: none; stroke: #6f6f6f; stroke-width: 2"/>
   </g>
   <g id="line2d_33">
    <path d="M 168.42326 307.068885 
L 168.42326 334.963665 
" clip-path="url(#pfa994c5320)" style="fill: none; stroke: #6f6f6f; stroke-width: 2; stroke-linecap: round"/>
   </g>
   <g id="line2d_34">
    <path d="M 311.022467 307.068885 
L 311.022467 334.963665 
" clip-path="url(#pfa994c5320)" style="fill: none; stroke: #6f6f6f; stroke-width: 2; stroke-linecap: round"/>
   </g>
   <g id="line2d_35">
    <g clip-path="url(#pfa994c5320)">
     <use xlink:href="#m5eba329614" x="447.222278" y="321.016275" style="fill-opacity: 0; stroke: #6f6f6f"/>
     <use xlink:href="#m5eba329614" x="448.160249" y="321.016275" style="fill-opacity: 0; stroke: #6f6f6f"/>
     <use xlink:href="#m5eba329614" x="457.638674" y="321.016275" style="fill-opacity: 0; stroke: #6f6f6f"/>
     <use xlink:href="#m5eba329614" x="394.156178" y="321.016275" style="fill-opacity: 0; stroke: #6f6f6f"/>
     <use xlink:href="#m5eba329614" x="449.845943" y="321.016275" style="fill-opacity: 0; stroke: #6f6f6f"/>
     <use xlink:href="#m5eba329614" x="449.56201" y="321.016275" style="fill-opacity: 0; stroke: #6f6f6f"/>
     <use xlink:href="#m5eba329614" x="327.942285" y="321.016275" style="fill-opacity: 0; stroke: #6f6f6f"/>
     <use xlink:href="#m5eba329614" x="347.039159" y="321.016275" style="fill-opacity: 0; stroke: #6f6f6f"/>
     <use xlink:href="#m5eba329614" x="333.771889" y="321.016275" style="fill-opacity: 0; stroke: #6f6f6f"/>
     <use xlink:href="#m5eba329614" x="507.727617" y="321.016275" style="fill-opacity: 0; stroke: #6f6f6f"/>
     <use xlink:href="#m5eba329614" x="405.845344" y="321.016275" style="fill-opacity: 0; stroke: #6f6f6f"/>
     <use xlink:href="#m5eba329614" x="326.982775" y="321.016275" style="fill-opacity: 0; stroke: #6f6f6f"/>
     <use xlink:href="#m5eba329614" x="387.977181" y="321.016275" style="fill-opacity: 0; stroke: #6f6f6f"/>
     <use xlink:href="#m5eba329614" x="322.346606" y="321.016275" style="fill-opacity: 0; stroke: #6f6f6f"/>
    </g>
   </g>
   <g id="line2d_36">
    <path d="M 233.632599 14.173695 
L 233.632599 69.963255 
" clip-path="url(#pfa994c5320)" style="fill: none; stroke: #6f6f6f; stroke-width: 2"/>
   </g>
   <g id="line2d_37">
    <path d="M 264.352013 83.910645 
L 264.352013 139.700205 
" clip-path="url(#pfa994c5320)" style="fill: none; stroke: #6f6f6f; stroke-width: 2"/>
   </g>
   <g id="line2d_38">
    <path d="M 265.240088 153.647595 
L 265.240088 209.437155 
" clip-path="url(#pfa994c5320)" style="fill: none; stroke: #6f6f6f; stroke-width: 2"/>
   </g>
   <g id="line2d_39">
    <path d="M 275.365519 223.384545 
L 275.365519 279.174105 
" clip-path="url(#pfa994c5320)" style="fill: none; stroke: #6f6f6f; stroke-width: 2"/>
   </g>
   <g id="line2d_40">
    <path d="M 263.989353 293.121495 
L 263.989353 348.911055 
" clip-path="url(#pfa994c5320)" style="fill: none; stroke: #6f6f6f; stroke-width: 2"/>
   </g>
   <g id="patch_8">
    <path d="M 105.352031 355.88475 
L 105.352031 7.2 
" style="fill: none; stroke: #cccccc; stroke-width: 1.25; stroke-linejoin: miter; stroke-linecap: square"/>
   </g>
   <g id="patch_9">
    <path d="M 538.702031 355.88475 
L 538.702031 7.2 
" style="fill: none; stroke: #cccccc; stroke-width: 1.25; stroke-linejoin: miter; stroke-linecap: square"/>
   </g>
   <g id="patch_10">
    <path d="M 105.352031 355.88475 
L 538.702031 355.88475 
" style="fill: none; stroke: #cccccc; stroke-width: 1.25; stroke-linejoin: miter; stroke-linecap: square"/>
   </g>
   <g id="patch_11">
    <path d="M 105.352031 7.2 
L 538.702031 7.2 
" style="fill: none; stroke: #cccccc; stroke-width: 1.25; stroke-linejoin: miter; stroke-linecap: square"/>
   </g>
  </g>
 </g>
 <defs>
  <clipPath id="pfa994c5320">
   <rect x="105.352031" y="7.2" width="433.35" height="348.68475"/>
  </clipPath>
 </defs>
</svg>
